# xmcd
#
# Track frame offsets: 
#        225
#        10338
#        20414
#        33096
#        45516
#        53349
#        67250
#        80772
#        90069
#        102160
#        112980
#        126348
#        141112
#        155677
#        164933
#        176653
#
# Disc length: 2536 seconds
#
# Revision: 0
# Processed by: cddbd v1.4PL0 Copyright (c) Steve Scherf et al.
# Submitted via: ExactAudioCopy v0.90a11
#
DISCID=ce09e510
DTITLE=Various Artist - Out In The Country
DYEAR=1900
DGENRE=
TTITLE0=Divel woman
TTITLE1=Hello walls
TTITLE2=Little blossom
TTITLE3=Fraulein
TTITLE4=I've got a happy heart
TTITLE5=Love me tender
TTITLE6=Rhinestone cowboy
TTITLE7=Purple Skies
TTITLE8=Walk through this world with me
TTITLE9=11 month and 29 days
TTITLE10=I'm so afraid od losing you again
TTITLE11=Harper vally p.t.a.
TTITLE12=Both sides now
TTITLE13=This road that i walk
TTITLE14=Crying
TTITLE15=I can't forget you
EXTD=
EXTT0=
EXTT1=
EXTT2=
EXTT3=
EXTT4=
EXTT5=
EXTT6=
EXTT7=
EXTT8=
EXTT9=
EXTT10=
EXTT11=
EXTT12=
EXTT13=
EXTT14=
EXTT15=
PLAYORDER=
